HIERARCHY
ROOT RootJoint
{
    OFFSET   0.000000   0.000000   0.000000
    CHANNELS 6 Xposition Yposition Zposition Xrotation Yrotation Zrotation
    JOINT pelvis_lowerback
    {
        OFFSET   0.000000   0.093605   0.000000
        CHANNELS 3 Xrotation Yrotation Zrotation
        JOINT lowerback_torso
        {
            OFFSET   0.000000   0.100000   0.000000
            CHANNELS 3 Xrotation Yrotation Zrotation
            JOINT torso_head
            {
                OFFSET   0.000000   0.282350   0.000000
                CHANNELS 3 Xrotation Yrotation Zrotation
                End Site
                {
                    OFFSET   0.000000   0.192650   0.000000
                }
            }
            JOINT rTorso_Clavicle
            {
                OFFSET  -0.001000   0.157500   0.000000
                CHANNELS 3 Xrotation Yrotation Zrotation
                JOINT rShoulder
                {
                    OFFSET  -0.117647   0.000000   0.000000
                    CHANNELS 3 Xrotation Yrotation Zrotation
                    JOINT rElbow
                    {
                        OFFSET  -0.245000   0.000000   0.000000
                        CHANNELS 3 Xrotation Yrotation Zrotation
                        JOINT rWrist
                        {
                            OFFSET  -0.240000   0.000000   0.000000
                            CHANNELS 3 Xrotation Yrotation Zrotation
                            End Site
                            {
                                OFFSET  -0.116353  -0.002500   0.000000
                            }
                        }
                    }
                }
            }
            JOINT lTorso_Clavicle
            {
                OFFSET   0.001000   0.157500   0.000000
                CHANNELS 3 Xrotation Yrotation Zrotation
                JOINT lShoulder
                {
                    OFFSET   0.117647   0.000000   0.000000
                    CHANNELS 3 Xrotation Yrotation Zrotation
                    JOINT lElbow
                    {
                        OFFSET   0.245000   0.000000   0.000000
                        CHANNELS 3 Xrotation Yrotation Zrotation
                        JOINT lWrist
                        {
                            OFFSET   0.240000   0.000000   0.000000
                            CHANNELS 3 Xrotation Yrotation Zrotation
                            End Site
                            {
                                OFFSET   0.116353  -0.002500   0.000000
                            }
                        }
                    }
                }
            }
        }
    }
    JOINT rHip
    {
        OFFSET  -0.100000  -0.051395   0.000000
        CHANNELS 3 Xrotation Yrotation Zrotation
        JOINT rKnee
        {
            OFFSET   0.000000  -0.410000   0.000000
            CHANNELS 3 Xrotation Yrotation Zrotation
            JOINT rAnkle
            {
                OFFSET   0.000000  -0.390000   0.000000
                CHANNELS 3 Xrotation Yrotation Zrotation
                JOINT rToeJoint
                {
                    OFFSET   0.000000  -0.050000   0.130000
                    CHANNELS 3 Xrotation Yrotation Zrotation
                    End Site
                    {
                        OFFSET  -0.010000   0.002000   0.060000
                    }
                }
            }
        }
    }
    JOINT lHip
    {
        OFFSET   0.100000  -0.051395   0.000000
        CHANNELS 3 Xrotation Yrotation Zrotation
        JOINT lKnee
        {
            OFFSET   0.000000  -0.410000   0.000000
            CHANNELS 3 Xrotation Yrotation Zrotation
            JOINT lAnkle
            {
                OFFSET   0.000000  -0.390000   0.000000
                CHANNELS 3 Xrotation Yrotation Zrotation
                JOINT lToeJoint
                {
                    OFFSET   0.000000  -0.050000   0.130000
                    CHANNELS 3 Xrotation Yrotation Zrotation
                    End Site
                    {
                        OFFSET   0.010000   0.002000   0.060000
                    }
                }
            }
        }
    }
}
MOTION
Frames: 5
Frame Time:   0.008333
 -2.307275   0.923872   3.851457 -10.962820  -3.577973  -3.368193  18.129663  -6.261590  -1.470745   8.214376  -5.155854   1.645251   3.442994   1.662455   0.616655   8.520148  -7.665566   6.544412  19.664270   3.177318  54.542446  -0.001535  11.504418  -0.001583   3.965505   0.545999   9.504001  -0.791342  -3.390492  -5.118687  -4.989794 -12.931396 -41.725191  -0.032156 -55.999427  -0.017635   3.419953  -5.229205   0.679709 -26.401159  -7.153474  -6.854499  91.265219   0.001486   0.000484   0.349018  -3.256635  11.211516   0.766316  -0.000431  -0.000667  12.017116  -7.762551   4.647337   4.814031   0.000055  -0.000537  -5.184650  -3.735642  -1.347458  -0.503807   0.000873   0.000233
 -2.306920   0.924007   3.850101 -10.952012  -3.562096  -3.365884  18.003835  -6.295643  -1.488358   8.239065  -5.250230   1.627305   3.436471   1.764009   0.635934   8.573515  -7.880226   6.477907  19.786687   2.917441  54.484890  -0.001139  11.393538  -0.001711   3.973475   0.414093   9.543645  -0.882055  -3.367220  -4.992432  -5.317180 -12.908023 -41.648890  -0.034522 -57.269328  -0.020479   3.420050  -5.277539   0.746109 -26.051312  -7.211200  -7.009147  91.214410   0.001190   0.000474   0.443002  -3.230094  11.148013   0.798308  -0.000323  -0.000601  11.991310  -7.827559   4.637060   4.644428   0.000036  -0.000359  -4.999884  -3.688123  -1.301346  -0.542020   0.000710   0.000187
 -2.306501   0.924063   3.848788 -10.910798  -3.593074  -3.326070  17.845788  -6.310788  -1.534202   8.233839  -5.328077   1.601332   3.432687   1.858987   0.657553   8.611509  -8.077498   6.399065  19.890851   2.677664  54.417103  -0.000825  11.297780  -0.001741   3.968695   0.331052   9.529626  -0.970855  -3.337235  -4.865013  -5.627370 -12.887336 -41.576160  -0.036475 -58.467587  -0.022771   3.418166  -5.398438   0.840242 -25.668359  -7.216647  -7.223257  90.903850   0.000946   0.001055   0.520111  -3.209523  11.086234   0.808053  -0.000253  -0.000503  11.924758  -7.871667   4.575116   4.488694   0.000014  -0.000200  -4.822574  -3.625300  -1.265853  -0.575165   0.000573   0.000150
 -2.306089   0.924070   3.847503 -10.853651  -3.658181  -3.266061  17.677430  -6.312292  -1.592900   8.206471  -5.389488   1.569473   3.426643   1.947621   0.677501   8.636756  -8.253299   6.318828  19.979599   2.458482  54.347585  -0.000585  11.212472  -0.001704   3.959391   0.276689   9.491806  -1.057584  -3.306955  -4.737858  -5.919415 -12.867449 -41.501959  -0.037752 -59.587573  -0.024326   3.416891  -5.534987   0.950147 -25.281152  -7.201423  -7.467101  90.514359   0.000785   0.001788   0.588587  -3.191860  11.027730   0.812725  -0.000200  -0.000414  11.837205  -7.898640   4.486477   4.342368  -0.000004  -0.000064  -4.652568  -3.551123  -1.238862  -0.603122   0.000461   0.000120
 -2.305726   0.924050   3.846238 -10.787025  -3.744826  -3.198093  17.507073  -6.304263  -1.654101   8.165450  -5.437453   1.537101   3.419116   2.030325   0.695595   8.651092  -8.409757   6.241837  20.054568   2.258690  54.279922  -0.000410  11.136358  -0.001621   3.947206   0.243600   9.443319  -1.141001  -3.277071  -4.613238  -6.193415 -12.847929 -41.427727  -0.038303 -60.632950  -0.025173   3.416250  -5.669288   1.069337 -24.898336  -7.180459  -7.718859  90.112945   0.000692   0.002438   0.651319  -3.176078  10.972784   0.816264  -0.000159  -0.000340  11.738190  -7.913268   4.389001   4.203300  -0.000014   0.000048  -4.490080  -3.470012  -1.216583  -0.625592   0.000370   0.000096
